<svg xmlns="http://www.w3.org/2000/svg" width="511.987" height="490.649" viewBox="0 0 511.987 490.649">
  <path id="star" d="M114.594,491.141A27.252,27.252,0,0,1,88.078,457.86l32.937-145.09L9.313,214.809a27.232,27.232,0,0,1,15.426-47.617l147.8-13.418L230.969,17.028A27.21,27.21,0,0,1,281.016,17l58.434,136.77,147.773,13.418a27.241,27.241,0,0,1,15.469,47.617l-111.7,97.941,32.938,145.086a27.2,27.2,0,0,1-40.488,29.4l-127.445-76.16-127.445,76.2a27.272,27.272,0,0,1-13.953,3.863Zm141.4-112.875a27.278,27.278,0,0,1,13.953,3.859l120.277,71.938L359.136,317.122a27.21,27.21,0,0,1,8.621-26.516l105.473-92.5L333.687,185.434a27.181,27.181,0,0,1-22.613-16.492L255.992,39.9,200.844,168.961a27.105,27.105,0,0,1-22.547,16.43L38.734,198.063l105.469,92.5a27.155,27.155,0,0,1,8.621,26.539L121.761,454.04l120.277-71.914a27.268,27.268,0,0,1,13.953-3.859ZM171.406,156.418a.061.061,0,0,1-.023.043Zm169.129-.062.023.043C340.559,156.375,340.559,156.375,340.535,156.355Zm0,0" transform="translate(-0.001 -0.492)" fill="#fe0"/>
</svg>
