<svg id="Layer_1" data-name="Layer 1" xmlns="http://www.w3.org/2000/svg" viewBox="0 0 1200 1200"><rect width="1200" height="1200" fill="#fff"/><path d="M694.76,682.87a26.89,26.89,0,0,1-11,2.3H493.4c-13.37,0-24.31-9.6-24.31-21.34V358a18.82,18.82,0,0,1,1.6-7.57c61.37,145.16,136.55,256,224.07,332.44" transform="translate(-1 0)" fill="#e4e4e4" fill-rule="evenodd"/><path d="M471.44,272.65H702a46,46,0,0,1,45.94,45.94v79.82H723.27V318.59A21.39,21.39,0,0,0,702,297.3H471.44a21.37,21.37,0,0,0-21.29,21.29V729.41a21.39,21.39,0,0,0,21.29,21.3H702a21.41,21.41,0,0,0,21.29-21.3V702.77h24.65v26.64a46,46,0,0,1-45.94,46H471.44a46.06,46.06,0,0,1-45.95-46V318.59a46,46,0,0,1,45.95-45.94" transform="translate(-1 0)" fill="#58595b"/><path d="M534,309.28H669.76a8.12,8.12,0,0,1,8.1,8.1h0a8.13,8.13,0,0,1-8.1,8.11H534a8.13,8.13,0,0,1-8.1-8.11h0a8.12,8.12,0,0,1,8.1-8.1" transform="translate(-1 0)" fill="#58595b" fill-rule="evenodd"/><path d="M504.67,309.28a9.12,9.12,0,1,1-9.12,9.12,9.11,9.11,0,0,1,9.12-9.12" transform="translate(-1 0)" fill="#58595b" fill-rule="evenodd"/><path d="M586.71,707a17,17,0,1,1-17,17,17,17,0,0,1,17-17" transform="translate(-1 0)" fill="#58595b" fill-rule="evenodd"/><path d="M621,392h219.8c6,0,11,4.18,11.54,9.67l25.61,273a9.72,9.72,0,0,1-3,8.05,11.68,11.68,0,0,1-8.53,3.43h-271a11.67,11.67,0,0,1-8.53-3.43,9.69,9.69,0,0,1-3-8.05l25.61-273C610,396.15,615,392,621,392" transform="translate(-1 0)" fill="#be509e" fill-rule="evenodd"/><path d="M672.69,430.35A8.87,8.87,0,1,1,666.1,441a8.87,8.87,0,0,1,6.59-10.67m-33.33,9.46,29-22a4.84,4.84,0,0,1,4-.92l34.43,7.06a4.94,4.94,0,0,1,3.87,3.76l20.06,85a5,5,0,0,1-3.73,6l-63.41,15a5,5,0,0,1-6-3.73l-20.06-85A4.94,4.94,0,0,1,639.36,439.81Z" transform="translate(-1 0)" fill="#b43b8e" fill-rule="evenodd"/><path d="M671.83,421.37a8.87,8.87,0,1,1-8.87,8.87,8.87,8.87,0,0,1,8.87-8.87m-34.62,1.55,33.27-14.78a4.86,4.86,0,0,1,4.15,0L706.51,423a4.91,4.91,0,0,1,2.91,4.54v87.34a5,5,0,0,1-5,5H639.25a5,5,0,0,1-5-5V427.5A4.94,4.94,0,0,1,637.21,422.92Z" transform="translate(-1 0)" fill="#fff" fill-rule="evenodd"/><rect x="665.55" y="372.12" width="10.55" height="45.63" fill="#fff"/><path d="M710,339.88a66.38,66.38,0,0,0-43.81,62.18v6.56H652.33v-6.56A80.32,80.32,0,0,1,710,325.28Zm37.7-16.27a80.27,80.27,0,0,1,64.52,78.45v6.56H798.37v-6.56a66.38,66.38,0,0,0-50.64-64.23Z" transform="translate(-1 0)" fill="#be509e"/><path d="M673.24,504.84c12.62,0,22.31-5.88,22.31-18.82v-.22c0-10.66-9.47-14.58-17.63-17.3-6.31-2.18-11.86-3.7-11.86-7v-.21c0-2.29,2.07-4,6.09-4,3.48,0,7.94,1.42,12.62,3.7a6.08,6.08,0,0,0,3.05.76,6.51,6.51,0,0,0,6.64-6.53,6.76,6.76,0,0,0-3.92-6.2,41,41,0,0,0-18.06-4.46c-11.75,0-21.33,6.64-21.33,18.5v.22c0,11.31,9.25,15.12,17.41,17.51,6.42,2,12.08,3.16,12.08,6.75v.22c0,2.61-2.18,4.35-7,4.35s-10.23-1.74-15.78-5.22a6.3,6.3,0,0,0-3.27-.87,6.4,6.4,0,0,0-6.52,6.52,6.58,6.58,0,0,0,3.15,5.66,40.65,40.65,0,0,0,22,6.64" transform="translate(-1 0)" fill="#b43b8e" fill-rule="evenodd"/><text transform="translate(412.32 912.92) scale(1.01 1)" font-size="144" fill="#be509e" font-family="FlamanteRoundBold, Flamante Round">Tohfa</text></svg>