<svg xmlns="http://www.w3.org/2000/svg" xmlns:xlink="http://www.w3.org/1999/xlink" width="72.89" height="73.99" viewBox="0 0 72.89 73.99">
  <defs>
    <filter id="Path_285" x="0" y="0" width="72.89" height="73.99" filterUnits="userSpaceOnUse">
      <feOffset dx="5" dy="10" input="SourceAlpha"/>
      <feGaussianBlur stdDeviation="5" result="blur"/>
      <feFlood flood-opacity="0.161"/>
      <feComposite operator="in" in2="blur"/>
      <feComposite in="SourceGraphic"/>
    </filter>
  </defs>
  <g id="Group_274" data-name="Group 274" transform="translate(-146 -675)">
    <g transform="matrix(1, 0, 0, 1, 146, 675)" filter="url(#Path_285)">
      <g id="Path_285-2" data-name="Path 285" transform="translate(10 5)" fill="#fff">
        <path d="M 21.44500541687012 43.4897575378418 C 18.61881446838379 43.4897575378418 15.87730503082275 42.922119140625 13.2966251373291 41.80258941650391 C 10.80289554595947 40.72078704833984 8.562975883483887 39.17176055908203 6.639095306396484 37.19855880737305 C 4.714365482330322 35.22446823120117 3.20317530632019 32.9255485534668 2.14749550819397 30.36565971374512 C 1.05430543422699 27.71477890014648 0.5000054240226746 24.89843940734863 0.5000054240226746 21.9948787689209 C 0.5000054240226746 19.09130859375 1.05430543422699 16.27497863769531 2.14749550819397 13.624098777771 C 3.20317530632019 11.064208984375 4.714365482330322 8.765288352966309 6.639095306396484 6.79119873046875 C 8.562975883483887 4.817988872528076 10.80289554595947 3.268968820571899 13.2966251373291 2.187158823013306 C 15.87730503082275 1.067638754844666 18.61881446838379 0.4999987781047821 21.44500541687012 0.4999987781047821 C 24.27119636535645 0.4999987781047821 27.01270484924316 1.067638754844666 29.59337615966797 2.187158823013306 C 32.08711624145508 3.268968820571899 34.32703399658203 4.817988872528076 36.25091552734375 6.79119873046875 C 38.17565536499023 8.765288352966309 39.68684387207031 11.064208984375 40.74252700805664 13.624098777771 C 41.83571624755859 16.27497863769531 42.3900146484375 19.09131813049316 42.3900146484375 21.9948787689209 C 42.3900146484375 24.89843940734863 41.83571624755859 27.71477890014648 40.74252700805664 30.36564826965332 C 39.68684387207031 32.9255485534668 38.17565536499023 35.22446823120117 36.25091552734375 37.19855880737305 C 34.32703399658203 39.17176055908203 32.08711624145508 40.72078704833984 29.59337615966797 41.80258941650391 C 27.01270484924316 42.922119140625 24.27119636535645 43.4897575378418 21.44500541687012 43.4897575378418 Z" stroke="none"/>
        <path d="M 21.44500541687012 1 C 18.68767547607422 1 16.01311492919922 1.553749084472656 13.49561500549316 2.645858764648438 C 11.06179618835449 3.701679229736328 8.875373840332031 5.213809967041016 6.997097015380859 7.140247344970703 C 5.117095947265625 9.068458557128906 3.640964508056641 11.31406784057617 2.609725952148438 13.81471824645996 C 1.541584014892578 16.40483856201172 0.9999961853027344 19.15703964233398 0.9999961853027344 21.9948787689209 C 0.9999961853027344 24.83271789550781 1.541584014892578 27.58491897583008 2.609725952148438 30.17502975463867 C 3.640964508056641 32.67567825317383 5.117095947265625 34.92129898071289 6.997097015380859 36.84951019287109 C 8.875373840332031 38.77594757080078 11.06179618835449 40.28807830810547 13.49561500549316 41.34389877319336 C 16.01311492919922 42.43600845336914 18.68767547607422 42.9897575378418 21.44500541687012 42.9897575378418 C 24.20233535766602 42.9897575378418 26.87689590454102 42.43600845336914 29.39438629150391 41.34389877319336 C 31.82820510864258 40.28807830810547 34.01462554931641 38.77594757080078 35.89290618896484 36.84951019287109 C 37.77290344238281 34.92129898071289 39.2490348815918 32.67567825317383 40.2802734375 30.17502975463867 C 41.34841537475586 27.58491897583008 41.89000701904297 24.83271789550781 41.89000701904297 21.9948787689209 C 41.89000701904297 19.15703964233398 41.34841537475586 16.40483856201172 40.2802734375 13.81471824645996 C 39.2490348815918 11.31406784057617 37.77290344238281 9.068458557128906 35.89290618896484 7.140247344970703 C 34.01462554931641 5.213809967041016 31.82820510864258 3.701679229736328 29.39438629150391 2.645858764648438 C 26.87689590454102 1.553749084472656 24.20233535766602 1 21.44500541687012 1 M 21.44500541687012 0 C 33.28874588012695 0 42.89000701904297 9.847438812255859 42.89000701904297 21.9948787689209 C 42.89000701904297 34.14231109619141 33.28874588012695 43.9897575378418 21.44500541687012 43.9897575378418 C 9.601253509521484 43.9897575378418 -3.814697265625e-06 34.14231109619141 -3.814697265625e-06 21.9948787689209 C -3.814697265625e-06 9.847438812255859 9.601253509521484 0 21.44500541687012 0 Z" stroke="none" fill="#bcff02"/>
      </g>
    </g>
    <g id="Group_273" data-name="Group 273" transform="translate(171.07 693.015)">
      <g id="Group_272" data-name="Group 272">
        <path id="Path_661" data-name="Path 661" d="M11.679,13.563a.377.377,0,0,0-.377.377v2.637a.754.754,0,0,1-.753.753H1.507a.754.754,0,0,1-.753-.753V1.507A.754.754,0,0,1,1.507.754h9.042a.754.754,0,0,1,.753.753V4.144a.377.377,0,0,0,.754,0V1.507A1.509,1.509,0,0,0,10.549,0H1.507A1.508,1.508,0,0,0,0,1.507v15.07a1.508,1.508,0,0,0,1.507,1.507h9.042a1.508,1.508,0,0,0,1.507-1.507V13.94A.377.377,0,0,0,11.679,13.563Z" fill="#ff0e0e"/>
        <path id="Path_662" data-name="Path 662" d="M141.441,132.246,136.92,128.1a.377.377,0,0,0-.509.556l3.807,3.49H128.377a.377.377,0,1,0,0,.754h11.841l-3.807,3.49a.377.377,0,0,0,.509.556l4.521-4.144a.377.377,0,0,0,0-.556Z" transform="translate(-123.479 -123.482)" fill="#ff0e0e"/>
      </g>
    </g>
  </g>
</svg>
