<svg xmlns="http://www.w3.org/2000/svg" width="40.141" height="40.194" viewBox="0 0 40.141 40.194">
  <g id="plus" transform="translate(142 22.106)">
    <g id="ok" transform="translate(-142 -22.106)">
      <path id="Path_720" data-name="Path 720" d="M36.061,37.044c-6.15,5.021-25.355,5.021-31.38,0-6.15-5.021-5.523-26.484,0-32.133s25.857-5.648,31.38,0S42.212,32.023,36.061,37.044Z" transform="translate(-0.301 -0.615)" fill="#8935ac"/>
      <path id="Path_721" data-name="Path 721" d="M20.687,27.643A29.389,29.389,0,0,1,3.24,34.421C-1.028,27.141-.149,9.442,4.872,4.3,9.39-.348,23.574-1.227,31.733,1.66,33.741,9.945,29.6,20.488,20.687,27.643Z" transform="translate(-0.491 0)" fill="rgba(51,28,54,0.2)"/>
      <g id="Group_573" data-name="Group 573" transform="translate(6.263 13.459)">
        <path id="Path_722" data-name="Path 722" d="M82.944,163.921a6.824,6.824,0,0,1-4.9,1.883,7.037,7.037,0,0,1-4.9-1.883,6.53,6.53,0,0,1-1.883-4.77,6.173,6.173,0,0,1,2.008-4.77,6.824,6.824,0,0,1,4.9-1.883,7.037,7.037,0,0,1,4.9,1.883,6.173,6.173,0,0,1,2.008,4.77A6.755,6.755,0,0,1,82.944,163.921Zm-.879-4.77a4.5,4.5,0,0,0-1.13-3.012,3.665,3.665,0,0,0-5.523,0,4.276,4.276,0,0,0-1.13,3.012,4.5,4.5,0,0,0,1.13,3.012,3.8,3.8,0,0,0,2.761,1.255,3.388,3.388,0,0,0,2.761-1.255A4.5,4.5,0,0,0,82.066,159.151Z" transform="translate(-71.271 -152.499)" fill="#fff"/>
        <path id="Path_723" data-name="Path 723" d="M254.738,155.342h2.887v5.4l4.9-5.4h3.64l-5.146,5.774c.5.628,1.255,1.757,2.51,3.514s2.134,3.012,2.761,3.766H262.9l-3.766-5.146-1.255,1.506v3.64h-2.887V155.342Z" transform="translate(-238.546 -155.091)" fill="#fff"/>
      </g>
    </g>
  </g>
</svg>
