<svg xmlns="http://www.w3.org/2000/svg" width="512" height="452" viewBox="0 0 512 452">
  <g id="problem" transform="translate(0 0)">
    <g id="Group_2" data-name="Group 2">
      <path id="Path_4" data-name="Path 4" d="M294.234,81.242a45.031,45.031,0,0,0-76.469,0l-151,242A45.016,45.016,0,0,0,105,392H407a45.021,45.021,0,0,0,38.234-68.758ZM271,268.033s1.721,17.616-15,18.449-15-18.449-15-18.449L256,165Zm0,0" fill="none" stroke="#ff002b" stroke-width="3"/>
      <g id="Group_1" data-name="Group 1">
        <path id="Path_3" data-name="Path 3" d="M496.137,291.48l-151-242a105.028,105.028,0,0,0-178.273,0l-151,242A105.019,105.019,0,0,0,105,452H407a105.019,105.019,0,0,0,89.137-160.52ZM407,422H105A75.016,75.016,0,0,1,41.317,307.363l151-242a75.024,75.024,0,0,1,127.367,0l151,242A75.016,75.016,0,0,1,407,422Zm0,0" fill="#ff1616"/>
        <g id="Ellipse_1" data-name="Ellipse 1" transform="translate(238 296)" fill="none" stroke="#ff1313" stroke-width="3">
          <circle cx="17.5" cy="17.5" r="17.5" stroke="none"/>
          <circle cx="17.5" cy="17.5" r="16" fill="none"/>
        </g>
      </g>
    </g>
  </g>
</svg>
