<svg xmlns="http://www.w3.org/2000/svg" width="520.858" height="520.858" viewBox="0 0 520.858 520.858">
  <g id="search" transform="matrix(-0.017, 1, -1, -0.017, 520.858, 8.936)">
    <g id="Group_2" data-name="Group 2">
      <g id="Group_1" data-name="Group 1">
        <path id="Path_4" data-name="Path 4" d="M310,190a10,10,0,1,0,10,10A10,10,0,0,0,310,190Z" fill="#7321de"/>
      </g>
    </g>
    <g id="Group_4" data-name="Group 4">
      <g id="Group_3" data-name="Group 3">
        <path id="Path_5" data-name="Path 5" d="M500.281,443.719,366.8,310.239A198.2,198.2,0,0,0,400,200C400,89.72,310.28,0,200,0S0,89.72,0,200,89.72,400,200,400a198.214,198.214,0,0,0,110.239-33.2L347.134,403.7l.016.016,96.568,96.568a40,40,0,1,0,56.563-56.562ZM305.536,345.727s0,0,0,0A178.459,178.459,0,0,1,200,380c-99.252,0-180-80.748-180-180S100.748,20,200,20s180,80.748,180,180a178.458,178.458,0,0,1-34.272,105.535A180.872,180.872,0,0,1,305.536,345.727Zm20.98,9.066a200.675,200.675,0,0,0,28.277-28.277l28.371,28.371a242.731,242.731,0,0,1-28.277,28.277ZM486.139,486.139a19.985,19.985,0,0,1-28.278,0l-88.8-88.8a262.774,262.774,0,0,0,28.277-28.277l88.8,88.8a19.982,19.982,0,0,1,0,28.274Z" fill="#7321de"/>
      </g>
    </g>
    <g id="Group_6" data-name="Group 6">
      <g id="Group_5" data-name="Group 5">
        <path id="Path_6" data-name="Path 6" d="M200,40C111.775,40,40,111.775,40,200s71.775,160,160,160,160-71.775,160-160S288.225,40,200,40Zm0,300c-77.2,0-140-62.8-140-140S122.8,60,200,60s140,62.8,140,140S277.2,340,200,340Z" fill="#7321de"/>
      </g>
    </g>
    <g id="Group_8" data-name="Group 8">
      <g id="Group_7" data-name="Group 7">
        <path id="Path_7" data-name="Path 7" d="M312.065,157.073A120.189,120.189,0,0,0,200,80a10,10,0,0,0,0,20,100.683,100.683,0,0,1,93.4,64.247,10,10,0,1,0,18.669-7.174Z" fill="#7321de"/>
      </g>
    </g>
  </g>
</svg>
